{
  "accessors": [
    {
      "bufferView": 2,
      "componentType": 5126,
      "count": 1687,
      "max": [
        38.641700744628906,
        58.927700042724609,
        15.800299644470215
      ],
      "min": [
        -35.545799255371094,
        -58.927700042724609,
        -15.800299644470215
      ],
      "type": "VEC3"
    },
    {
      "bufferView": 2,
      "byteOffset": 20244,
      "componentType": 5126,
      "count": 1687,
      "max": [
        1,
        1,
        0.99992978572845459
      ],
      "min": [
        -1,
        -1,
        -1
      ],
      "type": "VEC3"
    },
    {
      "bufferView": 1,
      "componentType": 5126,
      "count": 1687,
      "max": [
        1.9733999967575073,
        0.99550002813339233
      ],
      "min": [
        0.002199999988079071,
        0.003599999938160181
      ],
      "type": "VEC2"
    },
    {
      "bufferView": 0,
      "componentType": 5125,
      "count": 4830,
      "max": [
        1686
      ],
      "min": [
        0
      ],
      "type": "SCALAR"
    },
    {
      "bufferView": 2,
      "byteOffset": 40488,
      "componentType": 5126,
      "count": 2793,
      "max": [
        38.610198974609375,
        58.927700042724609,
        15.800299644470215
      ],
      "min": [
        -38.641700744628906,
        -58.927700042724609,
        -15.681300163269043
      ],
      "type": "VEC3"
    },
    {
      "bufferView": 2,
      "byteOffset": 74004,
      "componentType": 5126,
      "count": 2793,
      "max": [
        1,
        1,
        1
      ],
      "min": [
        -1,
        -1,
        -0.99987781047821045
      ],
      "type": "VEC3"
    },
    {
      "bufferView": 1,
      "byteOffset": 13496,
      "componentType": 5126,
      "count": 2793,
      "max": [
        1.9536000490188599,
        0.99470001459121704
      ],
      "min": [
        0.0031000000890344381,
        -0.0043999999761581421
      ],
      "type": "VEC2"
    },
    {
      "bufferView": 0,
      "byteOffset": 19320,
      "componentType": 5125,
      "count": 8316,
      "max": [
        2792
      ],
      "min": [
        0
      ],
      "type": "SCALAR"
    }
  ],
  "asset": {
    "extras": {
      "author": "techno-science3d (https://sketchfab.com/technoscience3d)",
      "license": "CC0-1.0 (http://creativecommons.org/publicdomain/zero/1.0/)",
      "source": "https://sketchfab.com/3d-models/bristol-f2b-first-world-war-airplane-1df44f8ecf0b4b3888e07f841c1197ce",
      "title": "Bristol F.2B - First World War Airplane"
    },
    "generator": "Sketchfab-7.79.0",
    "version": "2.0"
  },
  "bufferViews": [
    {
      "buffer": 0,
      "byteLength": 52584,
      "byteOffset": 0,
      "name": "floatBufferViews",
      "target": 34963
    },
    {
      "buffer": 0,
      "byteLength": 35840,
      "byteOffset": 52584,
      "byteStride": 8,
      "name": "floatBufferViews",
      "target": 34962
    },
    {
      "buffer": 0,
      "byteLength": 107520,
      "byteOffset": 88424,
      "byteStride": 12,
      "name": "floatBufferViews",
      "target": 34962
    }
  ],
  "buffers": [
    {
      "byteLength": 195944,
      "uri": "scene.bin"
    }
  ],
  "materials": [
    {
      "doubleSided": true,
      "emissiveFactor": [
        0,
        0,
        0
      ],
      "name": "Scene_-_Root",
      "pbrMetallicRoughness": {
        "baseColorFactor": [
          1,
          1,
          1,
          1
        ],
        "metallicFactor": 0,
        "roughnessFactor": 0.20000000000000001
      }
    }
  ],
  "meshes": [
    {
      "primitives": [
        {
          "attributes": {
            "NORMAL": 1,
            "POSITION": 0,
            "TEXCOORD_0": 2
          },
          "indices": 3,
          "material": 0,
          "mode": 4
        }
      ]
    },
    {
      "primitives": [
        {
          "attributes": {
            "NORMAL": 5,
            "POSITION": 4,
            "TEXCOORD_0": 6
          },
          "indices": 7,
          "material": 0,
          "mode": 4
        }
      ]
    }
  ],
  "nodes": [
    {
      "children": [
        1
      ],
      "name": "RootNode (gltf orientation matrix)",
      "rotation": [
        -0.70710678118654746,
        -0,
        -0,
        0.70710678118654757
      ]
    },
    {
      "children": [
        2
      ],
      "name": "RootNode (model correction matrix)"
    },
    {
      "children": [
        3,
        4
      ],
      "name": "041bdcf5385b48f3a0ebdc972f21dc2f.obj.cleaner.materialmerger.gles"
    },
    {
      "mesh": 0,
      "name": ""
    },
    {
      "mesh": 1,
      "name": ""
    }
  ],
  "scene": 0,
  "scenes": [
    {
      "name": "OSG_Scene",
      "nodes": [
        0
      ]
    }
  ]
}

